<svg width="40" height="40" viewBox="0 0 40 40" fill="none" xmlns="http://www.w3.org/2000/svg">
  <!-- 龙虾身体 -->
  <ellipse cx="20" cy="22" rx="10" ry="6" fill="#E74C3C"/>
  
  <!-- 龙虾头部 -->
  <ellipse cx="20" cy="14" rx="7" ry="5" fill="#C0392B"/>
  
  <!-- 眼睛 -->
  <circle cx="17" cy="12" r="1.5" fill="#1a1a1a"/>
  <circle cx="23" cy="12" r="1.5" fill="#1a1a1a"/>
  
  <!-- 钳子（左） -->
  <path d="M12 20 L6 16" stroke="#E74C3C" stroke-width="2.5" stroke-linecap="round"/>
  <ellipse cx="5" cy="15" rx="2.5" ry="2" fill="#E74C3C"/>
  
  <!-- 钳子（右） -->
  <path d="M28 20 L34 16" stroke="#E74C3C" stroke-width="2.5" stroke-linecap="round"/>
  <ellipse cx="35" cy="15" rx="2.5" ry="2" fill="#E74C3C"/>
  
  <!-- 触须 -->
  <path d="M17 9 Q15 5 12 4" stroke="#C0392B" stroke-width="1.5" stroke-linecap="round" fill="none"/>
  <path d="M23 9 Q25 5 28 4" stroke="#C0392B" stroke-width="1.5" stroke-linecap="round" fill="none"/>
  
  <!-- 尾巴 -->
  <path d="M20 28 L17 33 L20 31 L23 33 Z" fill="#C0392B"/>
  
  <!-- 腿（简化） -->
  <path d="M14 24 L10 27" stroke="#E74C3C" stroke-width="1.5" stroke-linecap="round"/>
  <path d="M17 26 L15 29" stroke="#E74C3C" stroke-width="1.5" stroke-linecap="round"/>
  <path d="M23 26 L25 29" stroke="#E74C3C" stroke-width="1.5" stroke-linecap="round"/>
  <path d="M26 24 L30 27" stroke="#E74C3C" stroke-width="1.5" stroke-linecap="round"/>
</svg>
